<svg width="1441" height="618" viewBox="0 0 1441 618" fill="none" xmlns="http://www.w3.org/2000/svg">
<g clip-path="url(#clip0)">
<path d="M1509.86 739.169L1504.3 732.648L1466.83 688.673L1434.16 541.199" stroke="#23262F" stroke-width="2" stroke-linecap="round" stroke-linejoin="round"/>
<path d="M1434.16 541.199L1447 548.834L1465.83 560.065L1510.63 586.729L1555.47 613.416L1565.96 616.618H1633.43H1747.42H1839.73" stroke="#23262F" stroke-width="2" stroke-linecap="round" stroke-linejoin="round"/>
<path d="M1315.67 161.455L1329.58 192.922L1330.92 195.962L1350.22 204.479L1356.45 207.24L1406.77 237.408L1419.06 329.211L1432.02 335.918L1445.75 342.995H1500.43L1516.59 350.514H1572.91L1591.79 358.474H1649.83H1707.86L1731.61 366.944H1791.5L1818.77 375.971H1880.61L1911.8 385.625H1975.71L2011.32 395.928H2077.5L2110.66 404.979" stroke="#23262F" stroke-width="2" stroke-linecap="round" stroke-linejoin="round"/>
<path d="M1263.98 72.3204L1272.58 188.118L1325.73 313.477L1378.88 335.918L1391.05 342.995L1403.97 350.514L1417.67 358.474L1432.23 366.944L1447.77 375.971L1464.32 385.625L1482.06 395.928H1548.22H1614.37H1680.53H1746.68H1812.86L1843.86 406.998H1912.4L1948.32 418.879H2019.44L2060.94 431.712H2110.66" stroke="#23262F" stroke-width="2" stroke-linecap="round" stroke-linejoin="round"/>
<path d="M1113.15 166.839L1117.64 275.977L1122.4 350.515L1127.48 358.474L1132.86 366.945L1138.58 375.972L1144.7 385.625L1151.27 395.929H1217.42L1226.84 406.998L1236.97 418.88L1247.89 431.713H1321.81L1336.63 445.567H1413.54H1490.46H1567.39H1644.31H1721.22H1798.13H1875.05H1951.96L1994.12 460.604H2074.3L2110.66 472.648" stroke="#23262F" stroke-width="2" stroke-linecap="round" stroke-linejoin="round"/>
<path d="M110.414 295.631L129.845 191.134" stroke="#23262F" stroke-width="2" stroke-linecap="round" stroke-linejoin="round"/>
<path d="M1263.98 72.3204L1315.67 161.455L1325.73 313.477L1336.37 342.995L1347.67 350.514L1359.63 358.474L1372.36 366.944L1385.93 375.971L1400.39 385.625L1415.91 395.928H1482.06L1501.08 406.998H1569.62H1638.18H1706.73H1775.29H1843.86L1877.18 418.879H1948.32L1987.02 431.712H2060.94L2105.81 445.566H2110.66" stroke="#23262F" stroke-width="2" stroke-linecap="round" stroke-linejoin="round"/>
<path d="M1062.94 199.419L1117.64 275.976" stroke="#23262F" stroke-width="2" stroke-linecap="round" stroke-linejoin="round"/>
<path d="M1018.93 310.763L1044.39 343.529L1049.22 349.725L1056.01 358.474L1062.6 366.944L1066.56 372.05L1072.5 379.708" stroke="#23262F" stroke-width="2" stroke-linecap="round" stroke-linejoin="round"/>
<path d="M1954.49 514.487H1869.55H1777.71H1685.84H1593.99H1502.14L1476.91 494.855L1453.91 476.963H1370.18H1286.47H1202.74H1119.01H1035.28H951.573H867.842H784.111H700.38H616.649H532.918H449.211H365.48H281.749H198.018H114.287H30.5792H-53.1517H-136.883H-197.681" stroke="#23262F" stroke-width="2" stroke-linecap="round" stroke-linejoin="round"/>
<path d="M166.158 163.242L180.906 183.524L208.545 221.465L213.716 227.035" stroke="#23262F" stroke-width="2" stroke-linecap="round" stroke-linejoin="round"/>
<path d="M1018.93 310.763L1020.81 389.918" stroke="#23262F" stroke-width="2" stroke-linecap="round" stroke-linejoin="round"/>
<path d="M154.842 287.394L173.253 214.017" stroke="#23262F" stroke-width="2" stroke-linecap="round" stroke-linejoin="round"/>
<path d="M24.7817 264.838L33.3612 250.59L63.5748 200.465" stroke="#23262F" stroke-width="2" stroke-linecap="round" stroke-linejoin="round"/>
<path d="M1059.98 180.971L1008.27 232.442L1009.57 318.862" stroke="#23262F" stroke-width="2" stroke-linecap="round" stroke-linejoin="round"/>
<path d="M2110.66 502.188L2090.14 494.855L2040.01 476.963H1956.27H1872.57H1788.84H1705.1H1621.37H1537.64H1453.91L1432.88 460.603L1413.54 445.565L1395.71 431.711L1379.25 418.879L1363.97 406.997L1349.73 395.928L1336.49 385.624L1324.08 375.971L1312.49 366.943L1301.59 358.473L1291.34 350.514L1281.7 342.995L1272.58 188.118L1219.44 159.806L1166.29 183.152L1124.69 170.388L1113.15 166.838L1059.98 180.97L1035.26 216.151L1008.27 232.441L989.021 250.588L985.868 253.582L982.575 256.668L979.166 259.894L975.619 263.236L971.932 266.717L968.106 270.337L964.094 274.096L959.921 278.041L955.561 282.149L954.495 283.17L953.59 284.005L953.034 284.608L951.341 286.442L947.19 290.921L942.831 295.631L938.263 300.551L933.463 305.726L928.432 311.156L923.145 316.865L917.556 322.875L911.69 329.21L905.476 335.917L898.89 342.995L897.151 350.514L895.319 358.473L894.369 362.557L891.262 364.832L879.482 366.943L829.42 375.971H767.578H705.76H643.918H582.076H520.235L505.464 385.624H441.559L423.519 395.928H357.364L335.614 406.997H267.048L241.101 418.879L213.113 431.711L182.853 445.565L150.019 460.603L114.287 476.963L75.2619 494.855L32.4342 514.487L-14.776 536.092L-67.0644 560.064L-125.289 586.728H-197.681" stroke="#23262F" stroke-width="2" stroke-linecap="round" stroke-linejoin="round"/>
<path d="M1356.45 207.241L1367.35 278.321L1378.88 335.918" stroke="#23262F" stroke-width="2" stroke-linecap="round" stroke-linejoin="round"/>
<path d="M2110.66 476.964H2040.01L1994.12 460.604H1913.93H1833.77H1753.59H1673.41H1593.22H1513.06H1432.88H1352.7L1336.63 445.567H1259.71L1182.8 444.29L1105.86 445.567L1028.95 443.385L952.037 445.567H875.123H798.209H721.272H644.359H567.445H490.531H413.617H336.68H259.767H182.853H105.939H29.0256H-47.9113H-124.825H-197.681" stroke="#23262F" stroke-width="2" stroke-linecap="round" stroke-linejoin="round"/>
<path d="M898.89 342.996H844.214H789.537H734.837H680.16H625.484H570.784L559.283 350.515H502.96L489.024 358.474H430.985H372.946H314.907H256.868H198.829H140.79H82.7516L55.0654 366.944H-4.80531L-36.2711 375.972H-98.0896L-133.752 385.625H-197.681" stroke="#23262F" stroke-width="2" stroke-linecap="round" stroke-linejoin="round"/>
<path d="M26.5688 250.59L63.5533 200.465" stroke="#23262F" stroke-width="2" stroke-linecap="round" stroke-linejoin="round"/>
<path d="M1975.57 494.855H1914.93H1827.33H1739.72H1652.12H1564.52H1476.91H1389.31L1370.18 476.963L1352.7 460.603H1272.51L1192.33 459.303L1112.17 460.603H1031.99H951.805H871.622H791.438H711.278H631.095H550.912H470.729H390.569H310.386H230.202H150.019H69.8592H-10.324H-90.5072H-170.69H-197.681" stroke="#23262F" stroke-width="2" stroke-linecap="round" stroke-linejoin="round"/>
<path d="M1212.27 103.208L1219.44 159.807L1227 272.751L1235.04 350.515L1243.55 358.474L1252.62 366.944L1262.27 375.972L1272.56 385.625L1283.58 395.929H1349.73H1415.91L1432.51 406.998L1450.39 418.879H1521.5H1592.64H1663.78H1734.92H1806.04H1877.18L1913.1 431.712H1987.02L2028.9 445.566H2105.81L2110.66 447.075" stroke="#23262F" stroke-width="2" stroke-linecap="round" stroke-linejoin="round"/>
<path d="M1413.22 560.064H1357.24L1336.84 536.092H1240.31H1143.75H1047.22H950.669H854.115H757.584H661.031H564.477H467.946H371.393H274.862H178.308H81.7777H-14.776H-111.33H-197.681" stroke="#23262F" stroke-width="2" stroke-linecap="round" stroke-linejoin="round"/>
<path d="M1117.64 275.977L1172.32 270.083L1227 272.752L1281.7 342.996H1336.37H1391.05H1445.75L1460.29 350.515H1516.59L1533.75 358.475L1552 366.945L1571.43 375.972H1633.25H1695.09H1756.93L1783.94 385.626H1847.87L1879.01 395.929H1945.17L1980.97 406.999H2049.51L2090.58 418.88H2110.66" stroke="#23262F" stroke-width="2" stroke-linecap="round" stroke-linejoin="round"/>
<path d="M985.868 253.582H954.935H919.643H884.328H849.037L846.973 256.669H811.009L808.18 259.894H771.497L767.833 263.236H730.431L725.864 266.717H687.72L682.155 270.337H643.222L636.637 274.096H596.893L589.149 278.041H548.547L539.573 282.149L530.205 286.442H487.795H445.361L433.628 290.921H390.221L376.911 295.632H332.507L317.481 300.551L301.713 305.726L285.157 311.156L267.743 316.865L249.379 322.876L230.04 329.211L209.612 335.917L188.001 342.995L165.091 350.514L140.79 358.474L114.936 366.944L87.4123 375.971L58.0103 385.625H-5.91833L-39.6101 395.928H-105.765L-144.28 406.997H-197.681" stroke="#23262F" stroke-width="2" stroke-linecap="round" stroke-linejoin="round"/>
<path d="M2110.66 366.944H2090.88L2056.12 358.474H1998.08L1967.1 350.514H1910.78L1883.21 342.995H1828.53L1804.07 335.917H1750.92H1697.78H1644.63H1591.48H1538.32H1485.17H1432.02H1378.88" stroke="#23262F" stroke-width="2" stroke-linecap="round" stroke-linejoin="round"/>
<path d="M1113.15 166.838L1160.56 142.936L1212.27 103.208L1263.98 72.3204" stroke="#23262F" stroke-width="2" stroke-linecap="round" stroke-linejoin="round"/>
<path d="M1406.77 237.409L1457.09 243.674L1507.4a3 232.048L1557.75 220.584L1608.06 237.223L1658.38 322.876L1677.56 329.212L1697.78 335.918L1719.16 342.996L1741.86 350.515H1798.16H1854.48L1882 358.474H1940.04L1971.14 366.945H2031.01L2066.09 375.972H2110.66" stroke="#23262F" stroke-width="2" stroke-linecap="round" stroke-linejoin="round"/>
<path d="M947.608 739.168L947.7 732.647L948.373 688.672L948.953 650.335L949.439 616.617L949.903 586.728L950.297 560.064L950.668 536.092L950.993 514.487L951.294 494.855L951.573 476.963L951.805 460.603L952.036 445.565L952.245 431.711L952.431 418.878L952.616 403.795L952.778 367.918L952.941 317.793" stroke="#23262F" stroke-width="2" stroke-linecap="round" stroke-linejoin="round"/>
<path d="M951.341 286.442H912.015H869.581H827.171H784.76H742.327H699.893H657.483H615.049L607.212 290.921L598.98 295.631L590.378 300.551L581.334 305.726L571.827 311.156L561.833 316.865H512.815L486.218 306.585L463.796 297.929L461.245 298.463L458.555 298.625L428.481 300.389L428.203 300.551L414.777 308.116L400.354 322.875L385.12 329.211L369.051 335.917L352.054 342.995L334.037 350.514L314.907 358.473L294.572 366.944L272.914 375.971L249.773 385.624L225.032 395.928L198.505 406.997H129.939L98.8207 418.879L65.2912 431.712L29.0256 445.566L-10.324 460.603L-53.1517 476.963L-99.9446 494.855L-151.282 514.487L-197.681 532.217" stroke="#23262F" stroke-width="2" stroke-linecap="round" stroke-linejoin="round"/>
<path d="M923.145 316.866H904.965H855.947H806.928H757.909H708.89H659.871H610.852H561.833L551.306 322.877L540.222 329.212H488.514H436.828H385.12H333.434H281.726H230.04H178.355L156.465 335.919H103.319L78.6242 342.996H23.9475L-3.85464 350.515H-60.1544H-116.477L-149.404 358.475H-197.681" stroke="#23262F" stroke-width="2" stroke-linecap="round" stroke-linejoin="round"/>
<path d="M110.415 295.632L66.0105 279.457L21.606 294.332" stroke="#23262F" stroke-width="2" stroke-linecap="round" stroke-linejoin="round"/>
<path d="M1406.77 237.408L1395.13 192.063" stroke="#23262F" stroke-width="2" stroke-linecap="round" stroke-linejoin="round"/>
<path d="M129.846 191.134L173.253 214.016L184.082 218.332" stroke="#23262F" stroke-width="2" stroke-linecap="round" stroke-linejoin="round"/>
<path d="M1160.59 142.936L1124.69 170.389" stroke="#23262F" stroke-width="2" stroke-linecap="round" stroke-linejoin="round"/>
<path d="M404.829 305.727L380.714 311.157H332.924H285.157H237.367H189.601H141.811H94.044H46.2541H-1.53583L-26.3699 316.865H-75.3888H-124.408L-153.184 322.876H-197.681" stroke="#23262F" stroke-width="2" stroke-linecap="round" stroke-linejoin="round"/>
<path d="M1353.25 203.644L1395.13 192.064L1444.15 183.872L1493.17 194.732L1507.43 232.048L1522.45 329.211L1538.31 335.918L1555.13 342.996H1609.8H1664.48L1685.53 350.514H1741.86L1765.9 358.474H1823.94H1882L1911.24 366.944H1971.14L2004.27 375.972H2066.09L2103.56 385.625H2110.66" stroke="#23262F" stroke-width="2" stroke-linecap="round" stroke-linejoin="round"/>
<path d="M879.482 366.945H833.454H773.584H713.713H653.842H593.948H534.078L520.235 375.972H458.416L441.559 385.626H377.63H313.701H249.773H185.867L158.877 395.929H92.7223L61.3725 406.998H-7.17047L-43.4361 418.88H-114.576L-156.453 431.713L-197.681 444.337" stroke="#23262F" stroke-width="2" stroke-linecap="round" stroke-linejoin="round"/>
<path d="M1089.73 376.528L1094.71 418.879L1100.07 431.712L1105.86 445.566L1112.17 460.604L1119.01 476.964L1126.5 494.856L1134.71 514.488L1143.75 536.093L1153.77 560.065L1164.95 586.728L1177.45 616.618L1191.57 650.336L1207.59 688.672L1226 732.648L1228.74 739.169" stroke="#23262F" stroke-width="2" stroke-linecap="round" stroke-linejoin="round"/>
<path d="M-197.681 295.633H-156.059H-111.654H-67.2267L-43.7375 290.922L-21.2918 286.443L-9.58198 282.15L1.61769 278.042L7.97114 275.722" stroke="#23262F" stroke-width="2" stroke-linecap="round" stroke-linejoin="round"/>
<path d="M1023.57 388.757L1026.14 430.319L1028.95 443.384L1031.99 460.603L1035.28 476.963L1038.9 494.855L1042.86 514.487L1047.22 536.092L1052.04 560.064L1057.42 586.728L1063.45 616.617L1070.25 650.335L1077.97 688.672L1086.85 732.647L1088.17 739.168" stroke="#23262F" stroke-width="2" stroke-linecap="round" stroke-linejoin="round"/>
<path d="M1343.01 192.133L1315.67 161.455" stroke="#23262F" stroke-width="2" stroke-linecap="round" stroke-linejoin="round"/>
<path d="M988.859 336.752L953.521 318.095L952.941 317.793" stroke="#23262F" stroke-width="2" stroke-linecap="round" stroke-linejoin="round"/>
<path d="M1160.56 142.936L1166.29 183.152L1172.32 270.082L1178.72 350.514L1185.51 358.474L1192.72 366.944L1200.42 375.971L1208.63 385.625L1217.42 395.928H1283.57L1295.4 406.997L1308.11 418.879L1321.81 431.712H1395.71H1469.63H1543.56H1617.45H1691.38H1765.3H1839.2H1913.1L1951.96 445.566H2028.9L2074.3 460.603H2110.66" stroke="#23262F" stroke-width="2" stroke-linecap="round" stroke-linejoin="round"/>
<path d="M-197.681 274.098H-158.331H-118.588H-78.8437H-39.1H0.643828L10.6146 272.195" stroke="#23262F" stroke-width="2" stroke-linecap="round" stroke-linejoin="round"/>
<path d="M989.021 250.589H954.981H920.316H885.673H851.031L849.037 253.583H813.745L811.009 256.669H775.045L771.497 259.895H734.837L730.431 263.236H693.053L687.72 266.717H649.576L643.222 270.337H604.313L596.893 274.097H557.126L548.547 278.042H507.945H467.343L456.607 282.149L445.361 286.442H402.951L390.221 290.921H346.837L332.507 295.632H288.079L271.987 300.552H226.516H181.021L135.55 292.522L115.307 305.727L94.044 311.157L71.6678 316.865L48.1091 322.876L23.2518 329.211L-2.97349 335.918L-30.7524 342.995L-60.1544 350.514L-91.3883 358.474L-124.57 366.944L-159.931 375.971L-197.681 385.625" stroke="#23262F" stroke-width="2" stroke-linecap="round" stroke-linejoin="round"/>
<path d="M905.476 335.917H900.537H847.39H794.244H741.098H687.951H634.805H581.659L570.784 342.995H516.107L502.96 350.514H446.66H390.337H334.037H277.714H221.414H165.091H108.768L82.7516 358.473H24.7127L-4.80533 366.944H-64.6993L-98.0896 375.971H-159.931H-197.681" stroke="#23262F" stroke-width="2" stroke-linecap="round" stroke-linejoin="round"/>
<path d="M-197.681 335.917H-162.436H-109.289L-80.1423 329.21H-28.4336H23.2519H74.9605L98.4265 322.875H148.744H199.061L218.724 316.865H267.743H316.739H365.758L397.757 311.156L414.777 308.116L451.182 300.551L456.631 299.414L461.245 298.462" stroke="#23262F" stroke-width="2" stroke-linecap="round" stroke-linejoin="round"/>
<path d="M105.987 161.803L121.291 169.345L148.397 182.712L174.553 208.819L184.083 218.333L197.555 223.694L216.639 231.282L230.69 250.589L237.461 259.895L240.545 264.142L242.4 266.694L254.875 274.097L275.675 286.443H318.108L332.114 282.15L345.539 278.042H386.141L398.152 274.097H437.896L448.586 270.338H487.518L496.978 266.718H535.145H573.289L580.872 263.237H618.25L624.836 259.895H661.495L667.13 256.669H703.094L707.848 253.583L712.416 250.589H747.058H781.724" stroke="#23262F" stroke-width="2" stroke-linecap="round" stroke-linejoin="round"/>
<path d="M953.591 284.006L953.521 318.096" stroke="#23262F" stroke-width="2" stroke-linecap="round" stroke-linejoin="round"/>
<path d="M272.614 266.717H306.259H344.403H382.547H420.69H458.834L468.689 263.236L478.173 259.895L487.286 256.669L496.051 253.583L504.491 250.589" stroke="#23262F" stroke-width="2" stroke-linecap="round" stroke-linejoin="round"/>
<path d="M18.568 294.401L-22.8222 295.631H-67.2267L-91.8752 300.551H-137.346L-164.314 305.726H-197.681" stroke="#23262F" stroke-width="2" stroke-linecap="round" stroke-linejoin="round"/>
<path d="M975.618 263.236H954.796H917.394H880.015H842.614L840.295 266.717H802.151L798.951 270.337H760.019L755.891 274.096H716.124L710.954 278.041H670.352L664.045 282.149L657.483 286.442L650.596 290.92L643.408 295.631L635.849 300.551L627.918 305.726L619.617 311.156H571.827H524.037L504.931 305.726L494.566 302.779L476.271 297.581L463.703 298.138L450.671 322.875L436.828 329.21L422.197 335.917L406.731 342.995L390.337 350.514L372.946 358.473L354.442 366.943L334.733 375.971L313.701 385.624L291.186 395.928L267.048 406.997H198.505L169.961 418.878L139.19 431.711L105.939 445.565L69.8591 460.603L30.5791 476.963L-12.3414 494.855L-59.4356 514.487L-111.33 536.092L-168.789 560.064L-197.681 572.085" stroke="#23262F" stroke-width="2" stroke-linecap="round" stroke-linejoin="round"/>
<path d="M504.931 305.727H534.727H581.334H627.918H674.526H721.133H767.74H814.348H860.932H907.539H933.463" stroke="#23262F" stroke-width="2" stroke-linecap="round" stroke-linejoin="round"/>
<path d="M986.957 404.259L952.431 418.878H881.291H810.174H739.034H667.894H596.777H525.637H454.497H383.357H312.241H241.101H169.961H98.8207H27.7039H-43.4361L-82.5306 431.711L-124.825 445.565L-170.69 460.603L-197.681 469.444" stroke="#23262F" stroke-width="2" stroke-linecap="round" stroke-linejoin="round"/>
<path d="M899.957 358.475H895.319H837.257H779.218H721.18H663.141H605.102H547.063L534.078 366.945H474.207L458.416 375.972H396.574H334.733H272.914H211.073H149.231H87.4123H25.5706L-5.91833 385.626H-69.8469L-105.765 395.929H-171.919L-197.681 402.891" stroke="#23262F" stroke-width="2" stroke-linecap="round" stroke-linejoin="round"/>
<path d="M1891.42 573.222L1865.94 560.064L1819.56 536.093L1777.71 514.488L1739.72 494.855L1705.1 476.964L1673.41 460.603L1644.31 445.566L1617.46 431.712L1592.64 418.879L1569.62 406.997L1548.22 395.928L1528.25 385.625H1464.32H1400.39H1336.49H1272.56H1208.63H1144.7H1118.57" stroke="#23262F" stroke-width="2" stroke-linecap="round" stroke-linejoin="round"/>
<path d="M910.878 350.515H897.151H840.851H784.528H728.229H671.906H615.606H559.283L547.063 358.474H489.024L474.207 366.945H414.336H354.442H294.572H234.701H174.83H114.936H55.0654L25.5706 375.972H-36.2711L-69.8469 385.625H-133.752L-171.919 395.929H-197.681" stroke="#23262F" stroke-width="2" stroke-linecap="round" stroke-linejoin="round"/>
<path d="M917.556 322.876H903.574H853.257H802.916H752.599H702.281H651.964H601.647H551.306H500.989H450.671H400.354H350.037H299.719H249.379H199.061L178.355 329.211H126.646L103.319 335.918H50.1728L23.9475 342.996H-30.7524H-85.4291L-116.477 350.515H-172.777L-197.681 356.223" stroke="#23262F" stroke-width="2" stroke-linecap="round" stroke-linejoin="round"/>
<path d="M293.714 274.097H318.641L331.788 270.337L344.402 266.717L356.506 263.236L368.17 259.895L379.369 256.669L390.152 253.583L400.54 250.589" stroke="#23262F" stroke-width="2" stroke-linecap="round" stroke-linejoin="round"/>
<path d="M851.031 250.589H816.365H781.723L778.43 253.583L775.045 256.669H739.057L734.837 259.895H698.177L693.053 263.236H655.651L649.576 266.717H611.432L604.313 270.337H565.381L557.126 274.097H517.383H477.639L467.343 278.042H426.742L415.101 282.149L402.951 286.442H360.517L346.837 290.921H303.429L288.079 295.632H243.674H199.247L154.842 287.394L135.55 292.522L112.872 296.514L110.299 296.305L90.0557 300.552L68.6998 305.727L46.2541 311.157L22.649 316.865L-2.20827 322.876L-28.4336 329.211L-56.143 335.918L-85.4291 342.995H-140.106L-172.777 350.514H-197.681" stroke="#23262F" stroke-width="2" stroke-linecap="round" stroke-linejoin="round"/>
<path d="M-197.681 321.715L-173.427 316.865H-124.408L-97.0925 311.157H-49.3026H-1.53587L22.0924 305.727H68.6998H115.307H161.891L181.021 300.552L199.247 295.632L216.638 231.282" stroke="#23262F" stroke-width="2" stroke-linecap="round" stroke-linejoin="round"/>
<path d="M-197.681 316.866H-173.427L-144.859 311.157H-97.0925L-71.099 305.727H-24.5149H22.0925L44.5846 300.552H90.0557L110.299 296.305L131.284 291.757L154.842 287.394" stroke="#23262F" stroke-width="2" stroke-linecap="round" stroke-linejoin="round"/>
<path d="M22.0693 256.668H19.6578L1.50176 259.894L-17.3962 263.235L-37.0595 266.716L-57.511 270.337L-78.8438 274.096L-101.081 278.041L-124.292 282.148L-148.546 286.441L-173.913 290.92L-197.681 295.121" stroke="#23262F" stroke-width="2" stroke-linecap="round" stroke-linejoin="round"/>
<path d="M17.2462 263.236H-17.3962H-54.7981H-92.1767H-129.579L-151.491 266.717L-174.308 270.337L-197.681 274.026" stroke="#23262F" stroke-width="2" stroke-linecap="round" stroke-linejoin="round"/>
<path d="M-197.681 270.338H-174.308H-135.375H-96.4432H-57.511H-18.5788H12.0058" stroke="#23262F" stroke-width="2" stroke-linecap="round" stroke-linejoin="round"/>
<path d="M-197.681 241.447L-174.632 253.583H-139.341H-104.026H-68.7339H-33.4422H1.87275H24.3649" stroke="#23262F" stroke-width="2" stroke-linecap="round" stroke-linejoin="round"/>
<path d="M240.313 250.589H261.924H296.59H331.232H365.898H400.54H435.206H469.848H504.491H539.157H573.799H608.465H643.107H677.773H712.415" stroke="#23262F" stroke-width="2" stroke-linecap="round" stroke-linejoin="round"/>
<path d="M283.418 278.042H304.937L318.641 274.097H358.384L370.72 270.337H409.653L420.69 266.717L431.31 263.236L441.489 259.895L451.298 256.669L460.758 253.583L469.848 250.589" stroke="#23262F" stroke-width="2" stroke-linecap="round" stroke-linejoin="round"/>
<path d="M250.283 256.669H271.453H307.417H343.405H379.369H415.333H451.297H487.285H523.249H559.213H595.177H631.165H667.129L672.555 253.583L677.772 250.589" stroke="#23262F" stroke-width="2" stroke-linecap="round" stroke-linejoin="round"/>
<path d="M807.044 739.169L808.552 732.648L818.754 688.673L827.635 650.337L835.449 616.618L842.383 586.729L848.574 560.065L854.116 536.093L859.147 514.488L863.692 494.856L867.843 476.964L871.622 460.604L875.124 445.567L878.324 431.713L881.292 418.88L884.051 406.998L886.625 395.929L889.013 385.625L891.262 364.833" stroke="#23262F" stroke-width="2" stroke-linecap="round" stroke-linejoin="round"/>
<path d="M2110.66 424.704L2090.58 418.88H2019.44L1980.97 406.998H1912.4L1879.01 395.929H1812.86L1783.94 385.626H1720.01H1656.11H1592.18H1528.25L1509.59 375.972L1492.13 366.945L1475.71 358.474L1460.29 350.515H1403.97H1347.67H1291.34H1235.04H1178.72H1122.4L1066.1 349.911L1046.53 344.156" stroke="#23262F" stroke-width="2" stroke-linecap="round" stroke-linejoin="round"/>
<path d="M1470.75 329.211L1457.09 243.674L1444.15 183.872L1431.86 167.697" stroke="#23262F" stroke-width="2" stroke-linecap="round" stroke-linejoin="round"/>
<path d="M105.987 161.803L124.653 168.904L166.159 163.242" stroke="#23262F" stroke-width="2" stroke-linecap="round" stroke-linejoin="round"/>
<path d="M262.688 263.236H281.725H319.127H356.505H393.907H431.309H468.688H506.089L514.831 259.895L523.248 256.669L531.341 253.583L539.155 250.589" stroke="#23262F" stroke-width="2" stroke-linecap="round" stroke-linejoin="round"/>
<path d="M1059.98 180.971L1062.94 199.42L1066.1 349.911L1069.44 358.474L1072.98 366.944L1076.76 375.972L1077.9 378.71" stroke="#23262F" stroke-width="2" stroke-linecap="round" stroke-linejoin="round"/>
<path d="M971.932 266.717H954.726H916.583H878.439H840.295L837.883 270.337H798.951L795.635 274.096H755.892L751.555 278.041H710.954L705.551 282.149L699.893 286.442L694.004 290.921L687.812 295.631L681.32 300.551L674.526 305.726L667.384 311.156L659.871 316.865L651.964 322.875L643.617 329.21L634.805 335.917L625.484 342.995L615.606 350.514L605.102 358.473L593.948 366.943L582.076 375.971L569.393 385.624H505.464L489.673 395.928H423.519L404.157 406.997L383.357 418.879L360.935 431.711L336.68 445.565L310.386 460.603L281.749 476.963L250.469 494.855L216.127 514.487L178.308 536.092L136.408 560.064L89.7543 586.728H-17.7673L-76.525 616.617H-190.516L-197.681 619.889" stroke="#23262F" stroke-width="2" stroke-linecap="round" stroke-linejoin="round"/>
<path d="M643.107 250.589L637.24 253.583L631.165 256.669L624.835 259.895H588.175L580.871 263.236H543.469H506.09L496.977 266.717H458.834L448.585 270.337H409.653L398.151 274.097H358.384L345.538 278.042H304.937L290.63 282.149L275.674 286.442L260.045 290.921" stroke="#23262F" stroke-width="2" stroke-linecap="round" stroke-linejoin="round"/>
<path d="M19.7041 259.895H1.50174H-35.1813H-71.8411L-92.1767 263.236L-113.347 266.717L-135.375 270.337L-158.331 274.097L-182.284 278.042L-197.681 280.571" stroke="#23262F" stroke-width="2" stroke-linecap="round" stroke-linejoin="round"/>
<path d="M1931.25 536.093H1916.11H1819.56H1723.03H1626.48H1529.92L1502.14 514.488H1410.27L1389.31 494.856H1301.71H1214.1H1126.5H1038.9H951.295H863.691H776.088H688.485H600.882H513.278H425.675H338.072H250.469H162.865H75.2619H-12.3413H-99.9446H-187.548H-197.681" stroke="#23262F" stroke-width="2" stroke-linecap="round" stroke-linejoin="round"/>
<path d="M14.6724 266.717H1.08438L-18.5788 270.337L-39.1 274.096L-60.4791 278.041L-82.8089 282.149L-106.136 286.442L-130.529 290.92L-156.059 295.631L-182.841 300.551L-197.681 303.289" stroke="#23262F" stroke-width="2" stroke-linecap="round" stroke-linejoin="round"/>
<path d="M-197.681 300.551H-182.841H-137.346L-111.654 295.631L-87.1218 290.921L-63.7022 286.442L-41.3028 282.149L-19.8773 278.041L0.643808 274.096H9.20009" stroke="#23262F" stroke-width="2" stroke-linecap="round" stroke-linejoin="round"/>
<path d="M-197.681 332.181L-183.536 329.21H-131.828H-80.1423L-52.5488 322.875H-2.20825H48.1091H98.4265L120.687 316.865H169.706H218.725L237.367 311.156L255.106 305.726H301.713H348.321H394.905H404.829L427.785 300.551L428.481 300.388" stroke="#23262F" stroke-width="2" stroke-linecap="round" stroke-linejoin="round"/>
<path d="M427.785 300.552H408.447H362.952H317.481H271.987L255.106 305.726H208.499H161.891L141.811 311.157L120.687 316.865H71.6679H22.649H-26.3699L-52.5489 322.876H-102.866H-153.184L-183.536 329.211H-197.681" stroke="#23262F" stroke-width="2" stroke-linecap="round" stroke-linejoin="round"/>
<path d="M928.432 311.157H906.287H858.497H810.731H762.941H715.174H667.384H619.617L610.852 316.866L601.647 322.876L591.908 329.211L581.659 335.918H528.513L516.107 342.996H461.431H406.731H352.054H297.354H242.677H188.001H133.301L108.768 350.514H52.4684L24.7127 358.474H-33.3262L-64.6992 366.944H-124.57H-184.441L-197.681 370.147" stroke="#23262F" stroke-width="2" stroke-linecap="round" stroke-linejoin="round"/>
<path d="M911.69 329.211H902.09H850.405H798.696H747.011H695.302H643.617H591.908H540.222L528.513 335.917H475.343H422.197H369.051H315.904H262.758H209.612H156.465L133.301 342.995H78.6242L52.4684 350.514H-3.85462L-33.3262 358.473H-91.3883H-149.404L-184.441 366.944H-197.681" stroke="#23262F" stroke-width="2" stroke-linecap="round" stroke-linejoin="round"/>
<path d="M952.942 317.793L948.165 322.875L946.82 324.268L922.102 350.514L908.653 364.785L889.013 385.624H825.084H761.179H697.251H633.322L621.983 395.928H555.828L541.29 406.997L525.638 418.878L508.757 431.711L490.532 445.565L470.729 460.603L449.211 476.963L425.676 494.855L399.845 514.487L371.393 536.092L339.881 560.064L304.798 586.728L265.472 616.617H151.481H37.4898L-21.4998 650.335L-88.582 688.672L-165.496 732.647L-176.904 739.168" stroke="#23262F" stroke-width="2" stroke-linecap="round" stroke-linejoin="round"/>
<path d="M947.19 290.92H910.971H867.587H824.179H780.795H737.388H694.003H650.596H607.212H563.804H520.42L510.148 295.631H465.743H421.316L408.446 300.551L394.905 305.726L380.714 311.156L365.758 316.864L350.037 322.875L333.434 329.21L315.904 335.917L297.354 342.994L277.714 350.513L256.868 358.473L234.701 366.943L211.072 375.97L185.867 385.624H121.939L92.7223 395.927H26.5677L-7.17047 406.997H-75.7366L-114.576 418.878H-185.716L-197.681 422.313" stroke="#23262F" stroke-width="2" stroke-linecap="round" stroke-linejoin="round"/>
<path d="M982.575 256.668H954.889H918.925H882.937H846.973L844.84 259.894H808.18L805.212 263.235H767.833L764.007 266.716H725.864L721.087 270.336H682.155L676.381 274.096H636.637L629.75 278.041H589.149L581.079 282.148L572.639 286.441H530.205L520.42 290.92H477.013H433.628L421.316 295.631H376.911L362.952 300.551L348.321 305.726L332.924 311.156L316.739 316.865L299.719 322.875L281.726 329.21L262.758 335.917L242.677 342.995L221.414 350.513L198.829 358.473L174.83 366.943L149.231 375.97L121.939 385.624H58.0103L26.5677 395.927H-39.6101L-75.7366 406.997H-144.28L-185.716 418.878H-197.681" stroke="#23262F" stroke-width="2" stroke-linecap="round" stroke-linejoin="round"/>
<path d="M270.711 266.044L281.725 263.236L294.826 259.895L307.417 256.669L319.545 253.583L331.231 250.589" stroke="#23262F" stroke-width="2" stroke-linecap="round" stroke-linejoin="round"/>
<path d="M1384.07 189.743L1395.13 192.063" stroke="#23262F" stroke-width="2" stroke-linecap="round" stroke-linejoin="round"/>
<path d="M2110.66 406.998H2049.51L2011.32 395.929H1945.17L1911.8 385.626H1847.87L1818.77 375.972H1756.93L1731.61 366.945H1671.76H1611.87L1591.79 358.475H1533.75H1475.71H1417.67H1359.63H1301.59H1243.55H1185.51H1127.47H1069.44H1058.35" stroke="#23262F" stroke-width="2" stroke-linecap="round" stroke-linejoin="round"/>
<path d="M979.166 259.895H954.842H918.182H881.499H844.84L842.614 263.236H805.212L802.151 266.717H764.007L760.019 270.337H721.087L716.125 274.097H676.381L670.352 278.042H629.75L622.562 282.149L615.049 286.442H572.639L563.804 290.921L554.576 295.632L544.883 300.552L534.727 305.727L524.037 311.157L512.814 316.865L500.989 322.876L488.514 329.211L475.343 335.918L461.43 342.995L446.66 350.514L430.985 358.474L414.336 366.944L396.574 375.971L377.63 385.625L357.364 395.928H291.186H225.032H158.877L129.939 406.998H61.3725L27.7039 418.879L-8.63131 431.712L-47.9113 445.566L-90.5072 460.604L-136.883 476.964L-187.548 494.856L-197.681 498.429" stroke="#23262F" stroke-width="2" stroke-linecap="round" stroke-linejoin="round"/>
<path d="M197.554 223.693L207.64 221.651" stroke="#23262F" stroke-width="2" stroke-linecap="round" stroke-linejoin="round"/>
<path d="M282.954 270.337H292.855H331.787H370.719L382.545 266.717L393.907 263.236L404.829 259.895L415.333 256.669L425.443 253.583L435.205 250.589" stroke="#23262F" stroke-width="2" stroke-linecap="round" stroke-linejoin="round"/>
<path d="M-197.681 732.647H-165.496H-26.3468H112.803H251.952H391.102H530.252L559.514 688.672L585.021 650.336L607.467 616.617L627.339 586.728L645.1 560.064L661.03 536.092L675.43 514.487L688.485 494.855L700.38 476.963L711.278 460.603L721.272 445.566L730.501 431.712L739.034 418.879L746.941 406.997L754.315 395.928L761.178 385.624L767.578 375.971L773.584 366.944L779.218 358.473L784.528 350.514L789.537 342.995L794.244 335.917L798.696 329.211L802.916 322.875L806.928 316.865L810.73 311.156L814.348 305.726L817.779 300.551L821.049 295.631L824.179 290.921L827.171 286.442L830.023 282.149L832.759 278.041L835.379 274.096H875.123H914.866H954.61H964.094" stroke="#23262F" stroke-width="2" stroke-linecap="round" stroke-linejoin="round"/>
<path d="M-197.681 267.947L-189.635 266.717H-151.491H-113.347H-75.2033H-37.0595H1.08436L16.8056 263.816" stroke="#23262F" stroke-width="2" stroke-linecap="round" stroke-linejoin="round"/>
<path d="M-197.681 266.717H-189.635L-166.957 263.236H-129.579L-108.501 259.895H-71.8411L-52.2706 256.669H-16.3064L1.87275 253.583L19.3563 250.589" stroke="#23262F" stroke-width="2" stroke-linecap="round" stroke-linejoin="round"/>
<path d="M1956.67 512.47L1914.93 494.856L1872.57 476.964L1833.77 460.604L1798.13 445.567L1765.3 431.713L1734.92 418.88L1706.73 406.998L1680.52 395.929L1656.11 385.626L1633.25 375.972L1611.87 366.945H1552H1492.12H1432.23H1372.36H1312.49H1252.62H1192.72H1132.85H1072.98H1065.35" stroke="#23262F" stroke-width="2" stroke-linecap="round" stroke-linejoin="round"/>
<path d="M2110.66 387.435L2103.56 385.625H2039.63L2004.27 375.971H1942.43L1911.24 366.944H1851.37L1823.94 358.474L1798.16 350.514L1773.86 342.995L1750.92 335.917L1729.24 329.211L1708.72 322.876L1689.24 311.922L1658.06 241.887L1646.65 216.244L1640.23 201.833L1623 125.926L1575.21 109.891L1527.42 124.325L1479.65 171.271L1431.86 167.697L1384.07 189.743L1343 192.133" stroke="#23262F" stroke-width="2" stroke-linecap="round" stroke-linejoin="round"/>
<path d="M-197.681 234.855L-188.545 234.763L-153.902 250.589H-119.237H-84.5943H-49.9286H-15.2862H19.3563H26.5677" stroke="#23262F" stroke-width="2" stroke-linecap="round" stroke-linejoin="round"/>
<path d="M2060.9 537.532L1921.75 649.942L1782.6 732.648H1643.45H1504.3H1365.15L1337.21 688.672L1312.86 650.336L1291.44 616.618L1272.44 586.728L1255.52 560.065L1240.31 536.093L1226.56 514.488L1214.1 494.856L1202.74 476.964L1192.33 459.304L1182.8 444.29L1173.99 431.712L1165.83 418.879L1158.29 406.998L1151.27 395.928H1133.41L1110.2 385.625L1089.73 376.528L1078.85 380.984L1041.52 396.346L1023.57 388.758L1020.81 389.918L986.957 404.259L952.616 403.795L884.05 406.998H815.507H746.941H678.398H609.832H541.289H472.723H404.157H335.614L312.241 418.879L287.012 431.712L259.767 445.566L230.202 460.604L198.018 476.964L162.865 494.856L124.281 514.488L81.7777 536.093L34.6834 560.065L-17.7673 586.728H-125.289L-190.516 616.618H-197.681" stroke="#23262F" stroke-width="2" stroke-linecap="round" stroke-linejoin="round"/>
<path d="M22.4403 256.182L19.6578 256.669H-16.3064L-35.1812 259.895L-54.7981 263.236L-75.2033 266.717L-96.4432 270.338L-118.588 274.097L-141.683 278.042L-165.775 282.149L-190.98 286.443L-197.681 287.58" stroke="#23262F" stroke-width="2" stroke-linecap="round" stroke-linejoin="round"/>
<path d="M1926.22 540.805L1916.11 536.094L1869.55 514.489L1827.33 494.857L1788.84 476.965L1753.59 460.605L1721.22 445.567L1691.38 431.713L1663.79 418.88L1638.19 406.999L1614.37 395.929L1592.18 385.626L1571.43 375.972H1509.59H1447.77H1385.93H1324.08H1262.27H1200.42H1138.58H1076.76L1070.81 373.536" stroke="#23262F" stroke-width="2" stroke-linecap="round" stroke-linejoin="round"/>
<path d="M365.898 250.589L354.861 253.583L343.406 256.669L331.487 259.895L319.128 263.236L306.259 266.717L292.857 270.337L287.268 271.846" stroke="#23262F" stroke-width="2" stroke-linecap="round" stroke-linejoin="round"/>
<path d="M-197.681 678.23L-142.819 650.336H-21.5005H99.7946H221.113H342.408L379.462 616.618L412.319 586.729L441.628 560.065L467.946 536.093L491.714 514.488L513.278 494.856L532.918 476.964L550.912 460.604L567.445 445.567L582.679 431.713L596.777 418.88L609.832 406.998L621.982 395.929H688.137L697.25 385.625L705.76 375.972L713.713 366.945L721.18 358.474L728.229 350.515L734.837 342.996L741.098 335.918L747.011 329.212L752.599 322.876L757.909 316.866L762.941 311.157L767.741 305.727L772.285 300.552L776.645 295.632L780.795 290.922L784.76 286.443L788.54 282.15L792.157 278.042H832.759H873.361H913.962H954.564H959.921" stroke="#23262F" stroke-width="2" stroke-linecap="round" stroke-linejoin="round"/>
<path d="M-197.681 312.108L-192.649 311.157H-144.859L-117.706 305.726H-71.0991L-46.3809 300.552H-0.909787H44.5846L66.01 279.457L86.4616 222.997L129.846 191.135L148.396 182.711L166.158 163.242" stroke="#23262F" stroke-width="2" stroke-linecap="round" stroke-linejoin="round"/>
<path d="M-197.681 311.157H-192.649L-164.314 305.727H-117.706L-91.8753 300.552H-46.3809L-22.8222 295.632L-0.330073 287.046L16.1564 274.097L19.4954 271.475L21.9302 269.572L38.3934 256.669L42.5672 253.583L43.0542 253.003L86.4616 222.997L105.986 161.803" stroke="#23262F" stroke-width="2" stroke-linecap="round" stroke-linejoin="round"/>
<path d="M245.205 253.583H248.961H284.253H319.544H354.859H390.151H425.443H460.758H496.05H531.341H566.656H601.948H637.24H672.555H707.846H743.138L747.057 250.589" stroke="#23262F" stroke-width="2" stroke-linecap="round" stroke-linejoin="round"/>
<path d="M1383.56 586.728H1379.97L1357.24 560.065H1255.52H1153.77H1052.05H950.298H848.573H746.825H645.101H543.353H441.628H339.88H238.156H136.408H34.6834H-67.0644H-168.789H-197.681" stroke="#23262F" stroke-width="2" stroke-linecap="round" stroke-linejoin="round"/>
<path d="M666.479 739.169L669.401 732.648L689.133 688.672L706.339 650.336L721.457 616.618L734.86 586.728L746.824 560.064L757.584 536.093L767.276 514.488L776.087 494.856L784.11 476.964L791.438 460.604L798.209 445.566L804.423 431.712L810.173 418.879L815.507 406.998L820.469 395.928L825.083 385.625L829.419 375.971L833.454 366.944L837.257 358.474L840.851 350.514L844.213 342.995L847.39 335.918L850.404 329.211L853.256 322.876L855.946 316.865L858.497 311.157L860.931 305.727L863.25 300.552L865.476 295.632L867.586 290.921L869.58 286.442L871.528 282.149L873.36 278.042L875.122 274.097L876.815 270.337L878.438 266.717L880.015 263.236L881.499 259.895L882.937 256.669L884.328 253.583L885.673 250.589" stroke="#23262F" stroke-width="2" stroke-linecap="round" stroke-linejoin="round"/>
<path d="M898.891 342.995L900.537 335.918L902.091 329.211L903.575 322.876L904.966 316.865L906.288 311.157L907.54 305.727L908.746 300.552L909.882 295.632L910.972 290.921L912.015 286.442L913.012 282.149L913.963 278.042L914.867 274.097L915.748 270.337L916.583 266.717L917.395 263.236L918.183 259.895L918.925 256.669L919.644 253.583L920.316 250.589" stroke="#23262F" stroke-width="2" stroke-linecap="round" stroke-linejoin="round"/>
<path d="M954.983 250.589L954.936 253.583L954.89 256.669L954.843 259.895L954.797 263.236L954.727 266.717L954.681 270.337L954.612 274.097L954.565 278.042L954.496 282.149V283.17" stroke="#23262F" stroke-width="2" stroke-linecap="round" stroke-linejoin="round"/>
<path d="M968.106 270.338H954.68H915.748H876.816H837.883L835.379 274.097H795.635L792.157 278.042H751.555L747.034 282.15H705.551H664.045H622.562H581.079H539.573H498.09H456.607H415.101H373.619H332.112H290.63L283.418 278.042L269.9 270.338L263.57 266.718L257.471 263.237L253.552 261.009L249.124 258.479L244.718 254.558L243.605 253.583L240.243 250.589L240.08 250.45L217.009 229.959L213.716 227.035L208.545 221.466L180.905 183.524L166.158 163.242L105.986 161.803L63.5753 200.464L43.0542 253.003L42.5672 253.583L21.8606 293.799L-0.909787 300.552L-24.5149 305.727L-49.3026 311.157L-75.3888 316.866L-102.866 322.876L-131.828 329.211L-162.436 335.918L-194.806 342.996L-197.681 343.622" stroke="#23262F" stroke-width="2" stroke-linecap="round" stroke-linejoin="round"/>
<path d="M246.272 258.99L249.125 258.48" stroke="#23262F" stroke-width="2" stroke-linecap="round" stroke-linejoin="round"/>
<path d="M816.365 250.589L813.745 253.583H778.43H743.138L739.057 256.669H703.093L698.177 259.895H661.494L655.651 263.236H618.249L611.432 266.717H573.288L565.381 270.337H526.449H487.517L477.639 274.097H437.895L426.742 278.042H386.14L373.619 282.149L360.517 286.442H318.107L303.429 290.921H260.045L243.674 295.632L226.516 300.552L208.499 305.727L189.601 311.157L169.706 316.865L148.744 322.876L126.646 329.211H74.9605L50.1728 335.918H-2.97347H-56.143H-109.289L-140.106 342.995H-194.806H-197.681" stroke="#23262F" stroke-width="2" stroke-linecap="round" stroke-linejoin="round"/>
<path d="M246.225 254.209L248.961 253.583L261.923 250.589" stroke="#23262F" stroke-width="2" stroke-linecap="round" stroke-linejoin="round"/>
<path d="M255.57 259.895H258.167H294.827H331.487H368.17H404.83H441.49H478.173H514.832H551.492H588.175L595.178 256.669L601.949 253.583L608.464 250.589" stroke="#23262F" stroke-width="2" stroke-linecap="round" stroke-linejoin="round"/>
<path d="M1381.52 588.562L1379.97 586.728H1272.44H1164.95H1057.42H949.903H842.382H734.86H627.339H519.84H412.319H304.797H197.276L151.48 616.618L99.7944 650.336L41.0367 688.672L-26.3469 732.648L-36.3408 739.169" stroke="#23262F" stroke-width="2" stroke-linecap="round" stroke-linejoin="round"/>
<path d="M256.311 260.336L258.166 259.895L271.452 256.669L284.252 253.583L296.588 250.589" stroke="#23262F" stroke-width="2" stroke-linecap="round" stroke-linejoin="round"/>
<path d="M942.831 295.632H909.881H865.476H821.049H776.644H732.217H687.812H643.408H598.98H554.575H510.148L499.412 300.552H497.626" stroke="#23262F" stroke-width="2" stroke-linecap="round" stroke-linejoin="round"/>
<path d="M-197.681 650.336H-142.819L-76.525 616.618H37.4891L89.7543 586.728H197.276L238.156 560.065L274.862 536.093L307.997 514.488L338.072 494.856L365.48 476.964L390.569 460.604L413.617 445.566L434.857 431.712L454.497 418.879L472.723 406.998L489.673 395.929H555.828L569.393 385.625H633.321L643.918 375.971L653.842 366.944L663.141 358.474L671.906 350.514L680.16 342.996L687.951 335.918L695.302 329.211L702.281 322.876L708.89 316.866L715.174 311.157L721.133 305.727L726.814 300.552L732.217 295.632L737.388 290.921L742.327 286.443L747.034 282.149H788.54H830.023H871.529H913.012H954.494H955.561" stroke="#23262F" stroke-width="2" stroke-linecap="round" stroke-linejoin="round"/>
<path d="M938.262 300.552H908.744H863.25H817.779H772.284H726.813H681.319H635.848H590.376H544.882H499.411L498.994 300.737" stroke="#23262F" stroke-width="2" stroke-linecap="round" stroke-linejoin="round"/>
<path d="M1350.33 616.619L1312.86 650.337H1191.57H1070.25H948.953H827.635H706.34H585.021H463.726H342.408L300.276 688.673L251.953 732.649L244.788 739.169" stroke="#23262F" stroke-width="2" stroke-linecap="round" stroke-linejoin="round"/>
<path d="M-197.681 431.712H-156.453H-82.5306H-8.63129H65.2912H139.191H213.113H287.012H360.935H434.857H508.757H582.679H656.602H730.501H804.424H878.323H952.245L1026.14 430.319L1100.07 431.712H1173.99H1247.89L1259.71 445.566L1272.51 460.603L1286.47 476.963L1301.71 494.855L1318.43 514.488L1336.84 536.092H1433.39H1529.92L1560.71 560.064L1595.01 586.728L1633.43 616.617L1676.77 650.336H1786.54L1792.45 646.576L1839.73 616.617L1850.1 610.027L1855.69 606.499L1876.9 586.728L1891.42 573.222L1905.54 560.064L1926.22 540.803L1931.25 536.092L1954.49 514.488L1956.67 512.469L1975.57 494.855L1983.47 487.499L1985.31 485.805" stroke="#23262F" stroke-width="2" stroke-linecap="round" stroke-linejoin="round"/>
<path d="M-197.681 688.673H-88.5826H41.0369H170.656H300.276H429.895L463.726 650.336L493.453 616.618L519.841 586.729L543.353 560.065L564.477 536.093L583.56 514.488L600.882 494.856L616.649 476.964L631.095 460.604L644.359 445.566L656.602 431.712L667.894 418.879L678.398 406.998L688.137 395.929H754.315H820.47H886.624L887.969 395.372L910.971 385.625L952.779 367.919L963.7 358.474L988.859 336.753L1009.57 318.861L1018.93 310.763" stroke="#23262F" stroke-width="2" stroke-linecap="round" stroke-linejoin="round"/>
<path d="M1905.54 560.065H1865.93H1764.19H1662.46L1626.48 536.093L1593.99 514.488L1564.52 494.856L1537.64 476.964L1513.06 460.604L1490.46 445.567L1469.63 431.713L1450.39 418.88H1379.25H1308.11H1236.97H1165.83H1094.71L1041.52 396.347" stroke="#23262F" stroke-width="2" stroke-linecap="round" stroke-linejoin="round"/>
<path d="M1876.9 586.727H1810.05L1764.19 560.064L1723.03 536.092L1685.84 514.487L1652.12 494.855L1621.37 476.963L1593.22 460.603L1567.39 445.565L1543.56 431.711L1521.5 418.878L1501.08 406.997H1432.51H1363.97H1295.4H1226.84H1158.29L1133.41 395.927" stroke="#23262F" stroke-width="2" stroke-linecap="round" stroke-linejoin="round"/>
<path d="M894.369 362.559L899.958 358.474L910.879 350.515L930.89 335.918L946.82 324.269" stroke="#23262F" stroke-width="2" stroke-linecap="round" stroke-linejoin="round"/>
<path d="M1035.26 216.151L1062.94 199.419" stroke="#23262F" stroke-width="2" stroke-linecap="round" stroke-linejoin="round"/>
<path d="M1434.15 541.199L1413.22 560.065L1383.56 586.729L1381.52 588.562L1350.33 616.618H1291.43H1177.44H1063.45H949.439H835.448H721.457H607.466H493.452H379.461H265.47L221.112 650.337L170.655 688.673L112.802 732.648L104.222 739.169" stroke="#23262F" stroke-width="2" stroke-linecap="round" stroke-linejoin="round"/>
<path d="M573.798 250.589L566.656 253.583L559.213 256.669L551.492 259.895L543.469 263.236L535.144 266.717L526.449 270.337L517.382 274.097L507.945 278.042L498.09 282.149L487.795 286.442L477.013 290.921L465.743 295.632L461.941 297.21L458.555 298.625" stroke="#23262F" stroke-width="2" stroke-linecap="round" stroke-linejoin="round"/>
<path d="M1330.92 195.962L1336.4 208.307L1367.35 278.32L1419.06 329.211H1470.75L1485.17 335.917L1500.43 342.995H1555.13L1572.91 350.514H1629.21H1685.53L1707.86 358.474H1765.9L1791.5 366.944H1851.37L1880.61 375.971H1942.43L1975.71 385.625H2039.63L2077.5 395.928H2110.66" stroke="#23262F" stroke-width="2" stroke-linecap="round" stroke-linejoin="round"/>
<path d="M1447 548.832L1436.54 539.062L1433.39 536.092L1410.27 514.487H1318.43H1226.56H1134.71H1042.86H950.993H859.147H767.277H675.43H583.56H491.714H399.844H307.997H216.127H124.281H32.4342H-59.4356H-151.282H-197.681" stroke="#23262F" stroke-width="2" stroke-linecap="round" stroke-linejoin="round"/>
<path d="M260.044 290.921L242.398 266.694" stroke="#23262F" stroke-width="2" stroke-linecap="round" stroke-linejoin="round"/>
</g>
<defs>
<clipPath id="clip0">
<rect width="1441" height="618" fill="white"/>
</clipPath>
</defs>
</svg>
